<svg width="1024" height="1024" viewBox="0 0 1024 1024" fill="none" xmlns="http://www.w3.org/2000/svg">
  <rect x="72" y="72" width="880" height="880" rx="220" fill="white"/>

  <!-- Minimal outer frame -->
  <rect x="232" y="232" width="560" height="560" rx="120" stroke="#0B1220" stroke-width="28"/>

  <!-- folded map to terrain -->
  <path d="M344 386L512 334L680 386L512 438L344 386Z" stroke="#0B1220" stroke-width="26" stroke-linejoin="round"/>
  <path d="M512 438L512 512" stroke="#0B1220" stroke-width="26" stroke-linecap="round"/>

  <path d="M388 564L512 526L636 564L512 602L388 564Z" stroke="#0B1220" stroke-width="26" stroke-linejoin="round"/>
  <path d="M388 564V646L512 686V602" stroke="#0B1220" stroke-width="26" stroke-linejoin="round"/>
  <path d="M636 564V646L512 686" stroke="#0B1220" stroke-width="26" stroke-linejoin="round"/>

  <!-- pin -->
  <path d="M512 372C488 372 470 390 470 412C470 441 498 465 512 484C526 465 554 441 554 412C554 390 536 372 512 372Z" fill="#0B1220"/>
  <circle cx="512" cy="412" r="10" fill="white"/>

  <!-- single terrain line -->
  <path d="M432 579C454 564 477 564 500 578C524 593 548 594 574 578C594 566 614 564 632 572" stroke="#0B1220" stroke-width="18" stroke-linecap="round"/>
</svg>