<svg width="1024" height="1024" viewBox="0 0 1024 1024" fill="none" xmlns="http://www.w3.org/2000/svg">
  <rect x="72" y="72" width="880" height="880" rx="220" fill="#0B1220"/>

  <!-- Top map tile -->
  <path d="M266 322L512 248L758 322L512 396L266 322Z" stroke="white" stroke-width="28" stroke-linejoin="round"/>

  <!-- Location pin -->
  <path d="M512 302C474 302 446 330 446 366C446 411 490 449 512 478C534 449 578 411 578 366C578 330 550 302 512 302Z" stroke="white" stroke-width="28" stroke-linejoin="round"/>
  <circle cx="512" cy="366" r="20" stroke="white" stroke-width="24"/>

  <!-- Conversion line -->
  <path d="M512 492L512 566" stroke="white" stroke-width="28" stroke-linecap="round"/>

  <!-- Bottom 3D terrain block -->
  <path d="M324 606L512 548L700 606L512 664L324 606Z" stroke="white" stroke-width="28" stroke-linejoin="round"/>
  <path d="M324 606V724L512 782V664" stroke="white" stroke-width="28" stroke-linejoin="round"/>
  <path d="M700 606V724L512 782" stroke="white" stroke-width="28" stroke-linejoin="round"/>

  <!-- Terrain contour -->
  <path d="M382 623C420 596 454 600 485 620C517 642 551 644 585 623C614 605 646 602 676 616" stroke="white" stroke-width="24" stroke-linecap="round"/>
  <path d="M378 674C411 651 449 650 481 669C517 691 553 694 590 670C619 651 648 646 674 656" stroke="white" stroke-width="20" stroke-linecap="round" opacity="0.92"/>
</svg>